<svg width="512" height="512" viewBox="0 0 512 512" xmlns="http://www.w3.org/2000/svg">
  <defs>
    <!-- Gradients for orbital rings -->
    <linearGradient id="orbitGradient" x1="0%" y1="0%" x2="100%" y2="100%">
      <stop offset="0%" style="stop-color:#00ff00;stop-opacity:1" />
      <stop offset="25%" style="stop-color:#00ffff;stop-opacity:1" />
      <stop offset="50%" style="stop-color:#0080ff;stop-opacity:1" />
      <stop offset="75%" style="stop-color:#ff00ff;stop-opacity:1" />
      <stop offset="100%" style="stop-color:#ff0080;stop-opacity:1" />
    </linearGradient>
    
    <!-- Brain gradient (matching your cyan to teal) -->
    <linearGradient id="brainGrad" x1="0%" y1="0%" x2="0%" y2="100%">
      <stop offset="0%" style="stop-color:#00FFFF;stop-opacity:1" />
      <stop offset="50%" style="stop-color:#00CED1;stop-opacity:1" />
      <stop offset="100%" style="stop-color:#006064;stop-opacity:1" />
    </linearGradient>
    
    <!-- Glow effect -->
    <filter id="glow">
      <feGaussianBlur stdDeviation="3" result="coloredBlur"/>
      <feMerge>
        <feMergeNode in="coloredBlur"/>
        <feMergeNode in="SourceGraphic"/>
      </feMerge>
    </filter>
    
    <!-- Circuit node template -->
    <circle id="node" r="4" fill="#ffff00" stroke="#ffd700" stroke-width="1" filter="url(#glow)"/>
    <circle id="smallNode" r="3" fill="#ffff00" stroke="#ffd700" stroke-width="0.5"/>
  </defs>
  
  <!-- Orbital rings (edge to edge) -->
  <g stroke="url(#orbitGradient)" fill="none" opacity="0.8">
    <circle cx="256" cy="256" r="250" stroke-width="3" filter="url(#glow)"/>
    <circle cx="256" cy="256" r="240" stroke-width="2.5"/>
    <circle cx="256" cy="256" r="230" stroke-width="2"/>
  </g>
  
  <!-- Orbital nodes -->
  <g>
    <!-- Top blue node -->
    <circle cx="256" cy="10" r="12" fill="#0080ff" stroke="#00ffff" stroke-width="2" filter="url(#glow)"/>
    <!-- Left cyan node -->
    <circle cx="10" cy="180" r="10" fill="#00ffff" stroke="#00ff00" stroke-width="2" filter="url(#glow)"/>
    <!-- Bottom left purple node -->
    <circle cx="80" cy="460" r="10" fill="#ff00ff" stroke="#ff0080" stroke-width="2" filter="url(#glow)"/>
    <!-- Bottom right red node -->
    <circle cx="432" cy="460" r="10" fill="#ff0000" stroke="#ff8000" stroke-width="2" filter="url(#glow)"/>
    <!-- Right green node -->
    <circle cx="502" cy="200" r="10" fill="#00ff00" stroke="#80ff00" stroke-width="2" filter="url(#glow)"/>
    <!-- Upper left yellow node -->
    <circle cx="100" cy="100" r="8" fill="#ffff00" stroke="#ffd700" stroke-width="1.5" filter="url(#glow)"/>
  </g>
  
  <!-- Complex organic brain shape (scaled larger and centered) -->
  <g transform="translate(256, 256) scale(1.5, 1.5)">
    <g fill="url(#brainGrad)" stroke="#FFFFFF" stroke-width="3" stroke-linejoin="round" opacity="0.95" transform="translate(-128, -128)">
      <!-- Left Lobe -->
      <path d="m123.48 66.47c.43 12.92 1.59 125.78.28 133.63-1.18 7.07-5.7 19.84-14.33 21.18s-14.23-5.15-16.82-6-9.75 3.53-15.41-.34-4.42-14-6-15.72-10.34.31-14.54-5.49-.55-12-1.88-13.68-14.27-3.2-16.1-16.75c-2.08-15.55 10.39-18.59 10.32-21.01s-10.34-15.65-5.14-31.91 18.88-18 19.68-19.46-5.46-10.42 2.78-23.34 20.13-9.43 21.82-10.58-.29-6.24 5.44-13.45c5.29-6.66 15.41-8.3 22.72-4.09 6.63 3.86 6.75 14.09 7.18 27.01z"/>
      <!-- Right Lobe -->
      <path d="m132.29 63.82c-.67 13-1.88 126.42-.7 134.33 1.06 7.12 3 15.1 13.59 20.24 8 3.88 15.62-2.43 18.13-3.25s8.51.27 14.32-3.53 8.34-12.3 9.92-13.19 9.23-.12 13.6-5.89.8-11.79 1.3-13.67 11.92-4.1 14.06-16.43c2.64-15.17-9.72-19.26-10.06-21.31s9.28-9.24 6.29-23.55c-3.27-15.63-13.39-17.49-14.16-19.42s5.16-6.87 2.08-15.8-11-8.73-12.16-10.66 1.67-6.79-3.18-12.79c-5.05-6.25-15.3-3.09-17-4s-1.66-7.15-7.53-13.37c-4.6-4.87-14.63-7.39-21.29-1.73-5.91 5-6.5 11.04-7.21 24.02z"/>
    </g>
  </g>
  
  <!-- Circuit lines extending from brain (adjusted for larger brain) -->
  <g stroke="#ffffff" stroke-width="1.5" fill="none" opacity="0.8">
    <!-- Left side circuits -->
    <path d="M 170,256 L 120,256 L 100,236 L 50,236"/>
    <path d="M 170,226 L 130,226 L 110,206 L 60,206"/>
    <path d="M 170,286 L 130,286 L 110,306 L 60,306"/>
    <path d="M 170,196 L 140,196 L 120,176 L 70,176"/>
    <path d="M 170,316 L 140,316 L 120,336 L 70,336"/>
    <path d="M 170,166 L 150,166 L 130,146 L 80,146"/>
    <path d="M 170,346 L 150,346 L 130,366 L 80,366"/>
    
    <!-- Right side circuits (mirrored) -->
    <path d="M 342,256 L 392,256 L 412,236 L 462,236"/>
    <path d="M 342,226 L 382,226 L 402,206 L 452,206"/>
    <path d="M 342,286 L 382,286 L 402,306 L 452,306"/>
    <path d="M 342,196 L 372,196 L 392,176 L 442,176"/>
    <path d="M 342,316 L 372,316 L 392,336 L 442,336"/>
    <path d="M 342,166 L 362,166 L 382,146 L 432,146"/>
    <path d="M 342,346 L 362,346 L 382,366 L 432,366"/>
  </g>
  
  <!-- Circuit nodes at connection points -->
  <g>
    <!-- Left side nodes -->
    <use href="#node" x="50" y="236"/>
    <use href="#node" x="60" y="206"/>
    <use href="#node" x="60" y="306"/>
    <use href="#node" x="70" y="176"/>
    <use href="#node" x="70" y="336"/>
    <use href="#node" x="80" y="146"/>
    <use href="#node" x="80" y="366"/>
    
    <!-- Brain connection nodes (left) -->
    <use href="#smallNode" x="170" y="256"/>
    <use href="#smallNode" x="170" y="226"/>
    <use href="#smallNode" x="170" y="286"/>
    <use href="#smallNode" x="170" y="196"/>
    <use href="#smallNode" x="170" y="316"/>
    <use href="#smallNode" x="170" y="166"/>
    <use href="#smallNode" x="170" y="346"/>
    
    <!-- Right side nodes -->
    <use href="#node" x="462" y="236"/>
    <use href="#node" x="452" y="206"/>
    <use href="#node" x="452" y="306"/>
    <use href="#node" x="442" y="176"/>
    <use href="#node" x="442" y="336"/>
    <use href="#node" x="432" y="146"/>
    <use href="#node" x="432" y="366"/>
    
    <!-- Brain connection nodes (right) -->
    <use href="#smallNode" x="342" y="256"/>
    <use href="#smallNode" x="342" y="226"/>
    <use href="#smallNode" x="342" y="286"/>
    <use href="#smallNode" x="342" y="196"/>
    <use href="#smallNode" x="342" y="316"/>
    <use href="#smallNode" x="342" y="166"/>
    <use href="#smallNode" x="342" y="346"/>
  </g>
  
  <!-- Additional circuit patterns on brain surface -->
  <g stroke="#ffffff" stroke-width="0.8" fill="none" opacity="0.5">
    <path d="M 230,240 L 240,240 L 245,235"/>
    <path d="M 230,272 L 240,272 L 245,277"/>
    <path d="M 282,240 L 272,240 L 267,235"/>
    <path d="M 282,272 L 272,272 L 267,277"/>
  </g>
</svg>